  <svg
    enable-background="new 0 0 64 64"
    viewBox="0 0 64 64"
    xmlns="http://www.w3.org/2000/svg"
  >
    <g id="Layer_8">
      <path
        d="m49 16v38c0 3.3-2.7 6-6 6h-30c-3.3 0-6-2.7-6-6v-38c0-3.3 2.7-6 6-6h7.3c.9-3.4 4-6 7.7-6s6.9 2.6 7.7 6h7.3c3.3 0 6 2.7 6 6z"
        fill="#55ace3"
      />
      <path
        d="m43 18v34c0 1.1-.9 2-2 2h-26c-1.1 0-2-.9-2-2v-34c0-1.1.9-2 2-2h26c1.1 0 2 .9 2 2z"
        fill="#fff"
      />
      <path
        d="m57 47c0 7.2-5.8 13-13 13s-13-5.8-13-13 5.8-13 13-13 13 5.8 13 13z"
        fill="#ffc10e"
      />
      <path
        d="m13 56h19v4h-19c-3.3 0-6-2.7-6-6v-38c0-3.3 2.7-6 6-6h7.3c.9-3.4 4-6 7.7-6s6.9 2.6 7.7 6h7.3c3.3 0 6 2.7 6 6v16h-4v-16c0-1.1-.9-2-2-2h-9c-1.1 0-2-.9-2-2 0-2.2-1.8-4-4-4s-4 1.8-4 4c0 1.1-.9 2-2 2h-9c-1.1 0-2 .9-2 2v38c0 1.1.9 2 2 2zm30-24v-14c0-1.1-.9-2-2-2h-26c-1.1 0-2 .9-2 2v34c0 1.1.9 2 2 2h15v-4h-13v-30h22v12zm-12 4h-10v4h10zm4-6h-14v4h14zm0-6h-14v4h14zm-14 22h8v-4h-8zm5-36v4h4v-4zm31 37c0 7.2-5.8 13-13 13s-13-5.8-13-13 5.8-13 13-13 13 5.8 13 13zm-4 0c0-5-4-9-9-9s-9 4-9 9 4 9 9 9 9-4 9-9zm-7-6h-4v4h-4v4h4v4h4v-4h4v-4h-4z"
        fill="#1a5083"
      />
    </g>
  </svg>
