<svg height="512" viewBox="0 0 64 64" width="512" xmlns="http://www.w3.org/2000/svg"><g id="Layer_3" fill="#6d6e71" data-name="Layer 3"><path d="m3.73391 31.25145 10.90809-9.66267a1 1 0 0 1 1.6365.97758l-.98931 4.2046a1 1 0 0 0 .97341 1.22904h7.7374a1 1 0 0 1 1 1v6a1 1 0 0 1 -1 1h-7.7374a1 1 0 0 0 -.97341 1.229l.98931 4.2046a1 1 0 0 1 -1.6365.97758l-10.90809-9.66263a1 1 0 0 1 0-1.4971z"/><path d="m60.26609 31.25145-10.90809-9.66267a1 1 0 0 0 -1.6365.97758l.98931 4.2046a1 1 0 0 1 -.97341 1.22904h-7.7374a1 1 0 0 0 -1 1v6a1 1 0 0 0 1 1h7.7374a1 1 0 0 1 .97341 1.229l-.98931 4.2046a1 1 0 0 0 1.6365.97758l10.90809-9.66267a1 1 0 0 0 0-1.49706z"/><path d="m32.74855 3.73391 9.66267 10.90809a1 1 0 0 1 -.97758 1.6365l-4.2046-.98931a1 1 0 0 0 -1.22904.97341v7.7374a1 1 0 0 1 -1 1h-6a1 1 0 0 1 -1-1v-7.7374a1 1 0 0 0 -1.229-.97341l-4.2046.98931a1 1 0 0 1 -.97758-1.6365l9.66263-10.90809a1 1 0 0 1 1.4971 0z"/><path d="m32.74855 60.26609 9.66267-10.90809a1 1 0 0 0 -.97758-1.6365l-4.2046.98931a1 1 0 0 1 -1.22904-.97341v-7.7374a1 1 0 0 0 -1-1h-6a1 1 0 0 0 -1 1v7.7374a1 1 0 0 1 -1.229.97341l-4.2046-.98931a1 1 0 0 0 -.97758 1.6365l9.66267 10.90809a1 1 0 0 0 1.49706 0z"/></g><g id="Icon" fill="#2196f3"><path d="m16.2627 37h7.7373a2.002 2.002 0 0 0 2-2v-6a2.002 2.002 0 0 0 -2-2h-7.7373l.98876-4.20459a1.99955 1.99955 0 0 0 -3.27246-1.95508l-10.9082 9.6626a2.01269 2.01269 0 0 0 0 2.99414l10.9082 9.6626a1.99989 1.99989 0 0 0 3.273-1.95508z"/><path d="m60.9292 30.50293-10.9082-9.6626a1.99989 1.99989 0 0 0 -3.273 1.95508l.9893 4.20459h-7.7373a2.002 2.002 0 0 0 -2 2v6a2.002 2.002 0 0 0 2 2h7.7373l-.98876 4.20459a1.99955 1.99955 0 0 0 3.27246 1.95508l10.9082-9.6626a2.01269 2.01269 0 0 0 0-2.99414z"/><path d="m22.79541 17.252 4.20459-.9893v7.7373a2.002 2.002 0 0 0 2 2h6a2.002 2.002 0 0 0 2-2v-7.7373l4.20459.98876a1.99955 1.99955 0 0 0 1.95508-3.27246l-9.6626-10.9082a2.06577 2.06577 0 0 0 -2.99414 0l-9.6626 10.9082a1.99989 1.99989 0 0 0 1.95508 3.273z"/><path d="m41.20459 46.74805-4.20459.98925v-7.7373a2.002 2.002 0 0 0 -2-2h-6a2.002 2.002 0 0 0 -2 2v7.7373l-4.20459-.98876a1.99955 1.99955 0 0 0 -1.95508 3.27246l9.6626 10.9082a2.01269 2.01269 0 0 0 2.99414 0l9.6626-10.9082a1.99989 1.99989 0 0 0 -1.95508-3.273z"/></g></svg>