<svg id="Icon_Set" height="512" viewBox="0 0 256 256" width="512" xmlns="http://www.w3.org/2000/svg"><g><g><circle cx="128" cy="128" fill="#5fcdff" r="113.633"/><path d="m217.83 128c0 49.61-40.22 89.83-89.83 89.83-43.54 0-79.85-30.98-88.08-72.1h52.13l-3.88 2.77c-6.81 4.87-8.38 14.34-3.51 21.16 4.88 6.81 14.35 8.38 21.16 3.51l45.89-32.84c3.98-2.84 6.34-7.43 6.34-12.33 0-4.89-2.36-9.48-6.34-12.33l-45.89-32.83c-2.67-1.91-5.76-2.83-8.81-2.83-4.73 0-9.39 2.2-12.35 6.34-4.87 6.81-3.3 16.28 3.51 21.15l3.88 2.77h-52.13c8.23-41.12 44.54-72.1 88.08-72.1 49.61 0 89.83 40.22 89.83 89.83z" fill="#ffe2e2"/><path d="m135.51 217.52c-2.47.21-4.98.31-7.51.31-43.54 0-79.85-30.98-88.08-72.1h15c7.75 38.74 40.42 68.47 80.59 71.79z" fill="#ffefee"/><path d="m54.92 110.27h-15c8.23-41.12 44.54-72.1 88.08-72.1 2.53 0 5.04.1 7.51.31-40.17 3.32-72.84 33.05-80.59 71.79z" fill="#ffefee"/><path d="m217.83 128c0 49.61-40.22 89.83-89.83 89.83-2.52 0-5.02-.1-7.49-.31 46.1-3.82 82.32-42.44 82.32-89.52s-36.22-85.7-82.32-89.52c2.47-.21 4.97-.31 7.49-.31 49.61 0 89.83 40.22 89.83 89.83z" fill="#ffcfcf"/></g><g fill="#5f266d"><path d="m128 10.367c-64.863 0-117.633 52.77-117.633 117.633s52.77 117.633 117.633 117.633 117.633-52.77 117.633-117.633-52.77-117.633-117.633-117.633zm0 227.266c-60.452 0-109.633-49.181-109.633-109.633s49.181-109.633 109.633-109.633 109.633 49.181 109.633 109.633-49.181 109.633-109.633 109.633z"/><path d="m128 34.17c-44.575 0-83.268 31.675-92.002 75.315-.495 2.479 1.405 4.785 3.922 4.785h52.13c1.739 0 3.279-1.124 3.81-2.78.53-1.656-.07-3.465-1.485-4.476l-3.877-2.768c-5.016-3.588-6.172-10.55-2.583-15.57 3.542-4.953 10.513-6.205 15.579-2.583l45.888 32.829c6.244 4.469 6.19 13.74.001 18.155l-45.889 32.839c-5.006 3.579-11.995 2.418-15.578-2.581-3.58-5.014-2.422-12.004 2.579-15.581l3.88-2.77c1.416-1.01 2.016-2.819 1.485-4.476-.531-1.656-2.07-2.78-3.81-2.78h-52.13c-2.519 0-4.418 2.307-3.922 4.785 8.734 43.64 47.427 75.315 92.002 75.315 51.738 0 93.83-42.092 93.83-93.83s-42.092-93.828-93.83-93.828zm0 179.66c-39.128 0-73.3-26.675-83.056-64.1h36.428c-4.593 6.479-4.837 15.435.037 22.26 6.154 8.587 18.149 10.577 26.739 4.433l45.886-32.836c10.651-7.6 10.698-23.512.004-31.17l-45.89-32.83c-8.676-6.205-20.646-4.088-26.74 4.437-4.961 6.937-4.569 15.889-.046 22.247h-36.418c9.756-37.426 43.928-64.101 83.056-64.101 47.327 0 85.83 38.503 85.83 85.83s-38.503 85.83-85.83 85.83z"/><path d="m195.221 146.633c-2.109-.663-4.354.512-5.013 2.621-.82 2.617-1.791 5.24-2.886 7.798-.869 2.031.073 4.382 2.104 5.251 2.031.868 4.382-.073 5.251-2.104 1.199-2.803 2.264-5.68 3.163-8.552.662-2.108-.511-4.353-2.619-5.014z"/><path d="m196.134 94.828c-.924-2.006-3.299-2.887-5.306-1.962-2.007.923-2.886 3.299-1.962 5.306.05.109 4.991 11.035 4.991 27.27 0 3.291-.207 6.613-.614 9.875-.274 2.192 1.28 4.191 3.473 4.465 2.201.274 4.192-1.288 4.465-3.473.449-3.59.677-7.247.677-10.868-.001-17.968-5.491-30.105-5.724-30.613z"/></g></g></svg>