<svg xmlns="http://www.w3.org/2000/svg" version="1.1" xmlns:xlink="http://www.w3.org/1999/xlink" xmlns:svgjs="http://svgjs.com/svgjs" width="512" height="512" x="0" y="0" viewBox="0 0 520 520" style="enable-background:new 0 0 512 512" xml:space="preserve" class=""><g><g id="_60-Checked" data-name="60-Checked"><path d="m485.274 129.164-68.62-72.738a10 10 0 0 0 -14.932.432l-64.655 77a186.827 186.827 0 0 0 -117.8-41.694c-103.257.003-187.267 84.013-187.267 187.275s84.01 187.272 187.272 187.272 187.272-84.011 187.272-187.272a187.792 187.792 0 0 0 -5.795-46.374l84.547-90.2a10 10 0 0 0 -.022-13.701zm-98.73 150.275c0 92.234-75.038 167.272-167.272 167.272s-167.272-75.038-167.272-167.272 75.038-167.272 167.272-167.272a166.866 166.866 0 0 1 104.928 37.016l-99.389 118.375-93.683-75.273a10 10 0 0 0 -14.79 2.57l-35.147 57.345a10 10 0 0 0 1.192 12.022l136.458 147.261a10 10 0 0 0 7.306 3.2h.029a10 10 0 0 0 7.3-3.161l150.61-160.679a167.882 167.882 0 0 1 2.458 28.596zm-160.326 110.58-124.013-133.831 25.25-41.2 92.457 74.289a10 10 0 0 0 13.922-1.365l175.98-209.59 54.459 57.726z" fill="#ffffff" data-original="#000000" class=""></path></g></g></svg>